<?xml version="1.0" encoding="UTF-8" standalone="no" ?>
<!DOCTYPE svg PUBLIC "-//W3C//DTD SVG 1.1//EN" "http://www.w3.org/Graphics/SVG/1.1/DTD/svg11.dtd">
<svg xmlns="http://www.w3.org/2000/svg" xmlns:xlink="http://www.w3.org/1999/xlink" version="1.1" width="445" height="445" viewBox="0 0 445 445" xml:space="preserve">
<desc>Created with Fabric.js 1.7.22</desc>
<defs>
</defs>
<g id="icon" style="stroke: none; stroke-width: 1; stroke-dasharray: none; stroke-linecap: butt; stroke-linejoin: miter; stroke-miterlimit: 10; fill: none; fill-rule: nonzero; opacity: 1;" transform="translate(-2.4722222222222285 -2.4722222222222285) scale(4.94 4.94)" >
	<path d="M 46.336 72.215 c -0.66 0 -1.292 -0.229 -1.805 -0.657 l -6.211 -5.2 c -0.028 0.035 -0.057 0.07 -0.086 0.105 c -1.774 2.119 -4.267 3.421 -7.021 3.665 c -2.753 0.24 -5.437 -0.599 -7.558 -2.374 c -2.12 -1.774 -3.422 -4.268 -3.666 -7.023 c -0.244 -2.754 0.599 -5.437 2.374 -7.557 c 0.028 -0.034 0.057 -0.067 0.086 -0.102 l -6.211 -5.2 c -0.577 -0.483 -0.932 -1.163 -0.999 -1.913 c -0.066 -0.75 0.163 -1.481 0.647 -2.059 l 5.2 -6.211 c -0.035 -0.028 -0.069 -0.056 -0.103 -0.084 c -2.12 -1.775 -3.422 -4.269 -3.666 -7.022 c -0.244 -2.754 0.598 -5.438 2.373 -7.558 c 1.775 -2.12 4.269 -3.422 7.022 -3.666 c 2.754 -0.245 5.438 0.599 7.558 2.373 c 0.034 0.028 0.067 0.057 0.101 0.086 l 5.2 -6.211 c 0.483 -0.577 1.163 -0.932 1.913 -0.998 c 0.747 -0.072 1.481 0.163 2.059 0.647 l 6.101 5.108 c 0.914 0.765 1.238 2.003 0.825 3.153 c -1.18 3.281 -0.177 6.988 2.495 9.225 c 2.673 2.237 6.499 2.574 9.52 0.835 c 1.06 -0.609 2.337 -0.509 3.252 0.257 l 6.1 5.107 c 1.193 0.998 1.351 2.78 0.353 3.972 l -5.2 6.211 c 0.035 0.028 0.069 0.057 0.104 0.085 c 4.375 3.663 4.955 10.204 1.291 14.58 c -1.774 2.12 -4.268 3.422 -7.022 3.666 c -2.749 0.241 -5.437 -0.599 -7.557 -2.374 c -0.034 -0.028 -0.067 -0.057 -0.102 -0.086 l -5.2 6.21 c -0.483 0.577 -1.163 0.933 -1.913 0.999 C 46.505 72.212 46.42 72.215 46.336 72.215 z M 37.916 63.409 l 7.901 6.615 c 0.168 0.14 0.383 0.207 0.597 0.188 c 0.218 -0.02 0.415 -0.122 0.556 -0.29 l 6.615 -7.901 l 0.773 0.824 c 0.257 0.275 0.497 0.505 0.733 0.702 c 3.529 2.956 8.807 2.484 11.761 -1.042 c 2.955 -3.53 2.487 -8.808 -1.042 -11.763 h -0.001 c -0.233 -0.195 -0.493 -0.386 -0.821 -0.599 l -0.945 -0.616 l 6.614 -7.899 c 0.289 -0.346 0.243 -0.864 -0.103 -1.154 l -6.101 -5.107 c -0.264 -0.222 -0.643 -0.244 -0.97 -0.056 c -3.745 2.153 -8.487 1.737 -11.801 -1.036 c -3.313 -2.773 -4.556 -7.369 -3.095 -11.435 c 0.127 -0.352 0.038 -0.722 -0.226 -0.944 l -6.102 -5.108 c -0.168 -0.141 -0.384 -0.208 -0.597 -0.188 c -0.218 0.019 -0.415 0.122 -0.556 0.29 l -6.614 7.901 l -0.772 -0.824 c -0.266 -0.283 -0.498 -0.507 -0.733 -0.702 c -1.71 -1.432 -3.868 -2.113 -6.097 -1.915 c -2.221 0.197 -4.233 1.247 -5.665 2.958 c -1.432 1.71 -2.112 3.875 -1.914 6.097 c 0.197 2.221 1.247 4.233 2.958 5.665 c 0.234 0.196 0.502 0.391 0.82 0.597 l 0.948 0.615 l -6.615 7.902 c -0.14 0.168 -0.207 0.38 -0.188 0.597 c 0.02 0.218 0.123 0.415 0.29 0.555 l 7.902 6.615 l -0.825 0.773 c -0.277 0.259 -0.507 0.498 -0.701 0.732 c -1.432 1.711 -2.112 3.875 -1.915 6.098 c 0.197 2.221 1.247 4.233 2.958 5.665 c 1.71 1.431 3.872 2.101 6.097 1.915 c 2.221 -0.197 4.233 -1.247 5.665 -2.958 c 0.196 -0.233 0.386 -0.493 0.599 -0.821 L 37.916 63.409 z" style="stroke: none; stroke-width: 1; stroke-dasharray: none; stroke-linecap: butt; stroke-linejoin: miter; stroke-miterlimit: 10; fill: rgb(0,0,0); fill-rule: nonzero; opacity: 1;" transform=" matrix(1 0 0 1 0 0) " stroke-linecap="round" />
	<path d="M 84.123 21.599 c -0.349 0 -0.688 -0.183 -0.871 -0.508 c -5.894 -10.424 -16.985 -16.9 -28.946 -16.9 c -10.211 0 -19.709 4.596 -26.059 12.611 c -0.342 0.433 -0.972 0.506 -1.405 0.163 c -0.433 -0.343 -0.506 -0.972 -0.163 -1.405 C 33.409 7.063 43.478 2.19 54.305 2.19 c 12.681 0 24.44 6.865 30.687 17.916 c 0.273 0.481 0.103 1.091 -0.378 1.363 C 84.459 21.557 84.29 21.599 84.123 21.599 z" style="stroke: none; stroke-width: 1; stroke-dasharray: none; stroke-linecap: butt; stroke-linejoin: miter; stroke-miterlimit: 10; fill: rgb(9, 220, 245); fill-rule: nonzero; opacity: 1;" transform=" matrix(1 0 0 1 0 0) " stroke-linecap="round" />
	<path d="M 33.77 88.339 c -10.827 0 -20.897 -4.873 -27.627 -13.369 c -0.343 -0.433 -0.27 -1.063 0.163 -1.406 c 0.433 -0.343 1.061 -0.271 1.405 0.163 c 6.348 8.014 15.846 12.611 26.059 12.611 c 11.962 0 23.053 -6.476 28.945 -16.9 c 0.272 -0.482 0.882 -0.649 1.363 -0.378 c 0.481 0.272 0.651 0.882 0.378 1.363 C 58.211 81.474 46.452 88.339 33.77 88.339 z" style="stroke: none; stroke-width: 1; stroke-dasharray: none; stroke-linecap: butt; stroke-linejoin: miter; stroke-miterlimit: 10; fill: rgb(9, 220, 245); fill-rule: nonzero; opacity: 1;" transform=" matrix(1 0 0 1 0 0) " stroke-linecap="round" />
	<path d="M 86.795 30.057 c -0.553 0 -1 -0.448 -1 -1 v -3.912 c 0 -0.552 0.447 -1 1 -1 c 0.553 0 1 0.448 1 1 v 3.912 C 87.796 29.609 87.348 30.057 86.795 30.057 z" style="stroke: none; stroke-width: 1; stroke-dasharray: none; stroke-linecap: butt; stroke-linejoin: miter; stroke-miterlimit: 10; fill: rgb(9, 220, 245); fill-rule: nonzero; opacity: 1;" transform=" matrix(1 0 0 1 0 0) " stroke-linecap="round" />
	<path d="M 88.751 28.101 h -3.912 c -0.553 0 -1 -0.448 -1 -1 s 0.447 -1 1 -1 h 3.912 c 0.553 0 1 0.448 1 1 S 89.304 28.101 88.751 28.101 z" style="stroke: none; stroke-width: 1; stroke-dasharray: none; stroke-linecap: butt; stroke-linejoin: miter; stroke-miterlimit: 10; fill: rgb(9, 220, 245); fill-rule: nonzero; opacity: 1;" transform=" matrix(1 0 0 1 0 0) " stroke-linecap="round" />
	<path d="M 26.941 6.004 c -0.773 0 -1.545 -0.295 -2.134 -0.883 c -1.176 -1.176 -1.176 -3.09 0 -4.267 c 1.14 -1.14 3.127 -1.14 4.267 0 c 0.57 0.57 0.884 1.327 0.884 2.133 c 0 0.806 -0.314 1.564 -0.884 2.134 l 0 0 v 0 C 28.486 5.71 27.714 6.004 26.941 6.004 z M 26.941 1.973 c -0.26 0 -0.521 0.099 -0.719 0.297 c -0.396 0.396 -0.396 1.041 0 1.437 c 0.397 0.397 1.041 0.397 1.438 0 v 0 c 0.192 -0.191 0.298 -0.447 0.298 -0.719 c 0 -0.271 -0.106 -0.527 -0.298 -0.718 C 27.462 2.072 27.201 1.973 26.941 1.973 z" style="stroke: none; stroke-width: 1; stroke-dasharray: none; stroke-linecap: butt; stroke-linejoin: miter; stroke-miterlimit: 10; fill: rgb(251, 8, 142); fill-rule: nonzero; opacity: 1;" transform=" matrix(1 0 0 1 0 0) " stroke-linecap="round" />
	<path d="M 15.93 63.817 c -0.218 0 -0.437 -0.07 -0.621 -0.216 C 6.813 56.871 1.94 46.802 1.94 35.975 c 0 -12.682 6.865 -24.44 17.916 -30.687 c 0.482 -0.273 1.091 -0.103 1.363 0.379 c 0.272 0.481 0.102 1.091 -0.379 1.363 c -10.424 5.893 -16.9 16.984 -16.9 28.945 c 0 10.211 4.596 19.71 12.611 26.058 c 0.433 0.344 0.506 0.973 0.163 1.406 C 16.517 63.687 16.225 63.817 15.93 63.817 z" style="stroke: none; stroke-width: 1; stroke-dasharray: none; stroke-linecap: butt; stroke-linejoin: miter; stroke-miterlimit: 10; fill: rgb(251, 8, 142); fill-rule: nonzero; opacity: 1;" transform=" matrix(1 0 0 1 0 0) " stroke-linecap="round" />
	<path d="M 74.101 84.354 c -0.295 0 -0.587 -0.13 -0.785 -0.379 c -0.343 -0.433 -0.27 -1.062 0.163 -1.406 c 8.014 -6.349 12.611 -15.847 12.611 -26.059 c 0 -11.962 -6.476 -23.053 -16.9 -28.945 c -0.481 -0.272 -0.651 -0.882 -0.378 -1.363 c 0.273 -0.482 0.883 -0.649 1.363 -0.379 C 81.224 32.07 88.09 43.829 88.09 56.51 c 0 10.826 -4.873 20.896 -13.369 27.628 C 74.537 84.283 74.318 84.354 74.101 84.354 z" style="stroke: none; stroke-width: 1; stroke-dasharray: none; stroke-linecap: butt; stroke-linejoin: miter; stroke-miterlimit: 10; fill: rgb(251, 8, 142); fill-rule: nonzero; opacity: 1;" transform=" matrix(1 0 0 1 0 0) " stroke-linecap="round" />
	<path d="M 67.764 90 c -0.773 0 -1.545 -0.294 -2.134 -0.882 c -1.176 -1.176 -1.176 -3.091 0 -4.267 s 3.091 -1.176 4.267 0 c 1.176 1.176 1.176 3.091 0 4.267 C 69.309 89.706 68.536 90 67.764 90 z M 67.764 85.968 c -0.261 0 -0.521 0.099 -0.719 0.297 c -0.397 0.397 -0.397 1.041 0 1.438 c 0.397 0.397 1.041 0.397 1.438 0 c 0.397 -0.397 0.397 -1.041 0 -1.438 C 68.284 86.067 68.024 85.968 67.764 85.968 z" style="stroke: none; stroke-width: 1; stroke-dasharray: none; stroke-linecap: butt; stroke-linejoin: miter; stroke-miterlimit: 10; fill: rgb(251, 8, 142); fill-rule: nonzero; opacity: 1;" transform=" matrix(1 0 0 1 0 0) " stroke-linecap="round" />
	<path d="M 5.161 69.51 H 1.249 c -0.552 0 -1 -0.447 -1 -1 c 0 -0.553 0.448 -1 1 -1 h 3.912 c 0.552 0 1 0.447 1 1 C 6.162 69.062 5.714 69.51 5.161 69.51 z" style="stroke: none; stroke-width: 1; stroke-dasharray: none; stroke-linecap: butt; stroke-linejoin: miter; stroke-miterlimit: 10; fill: rgb(9, 220, 245); fill-rule: nonzero; opacity: 1;" transform=" matrix(1 0 0 1 0 0) " stroke-linecap="round" />
	<path d="M 3.205 71.466 c -0.552 0 -1 -0.447 -1 -1 v -3.912 c 0 -0.553 0.448 -1 1 -1 s 1 0.447 1 1 v 3.912 C 4.205 71.019 3.757 71.466 3.205 71.466 z" style="stroke: none; stroke-width: 1; stroke-dasharray: none; stroke-linecap: butt; stroke-linejoin: miter; stroke-miterlimit: 10; fill: rgb(9, 220, 245); fill-rule: nonzero; opacity: 1;" transform=" matrix(1 0 0 1 0 0) " stroke-linecap="round" />
</g>
</svg>